<?xml version="1.0" encoding="utf-8"?>
<svg viewBox="1.407 6.55 500 500" xmlns="http://www.w3.org/2000/svg">
  <g id="surface1" transform="matrix(6.134812, 0, 0, 7.21338, -107.236229, -11.266549)" style="">
    <path style=" stroke:none;fill-rule:nonzero;fill:rgb(0%,0%,0%);fill-opacity:1;" d="M 43.480469 8.953125 C 42.0625 9.628906 41.226562 10.8125 41.007812 12.410156 C 40.933594 13.054688 40.964844 13.203125 41.226562 13.464844 C 41.886719 14.125 42.660156 13.746094 42.867188 12.691406 C 43.128906 11.238281 44.066406 10.402344 45.425781 10.402344 C 46.859375 10.402344 47.867188 11.402344 47.882812 12.835938 C 47.898438 13.878906 47.398438 14.507812 46.054688 15.121094 C 44.855469 15.664062 44.460938 16.175781 44.460938 17.160156 C 44.460938 18.242188 44.78125 18.566406 47.328125 20.074219 C 49.417969 21.304688 50.015625 21.65625 50.96875 22.246094 C 51.128906 22.332031 51.566406 22.582031 51.960938 22.785156 C 52.34375 22.992188 52.648438 23.226562 52.648438 23.3125 C 52.648438 23.386719 52.371094 23.621094 52.035156 23.828125 C 50.398438 24.808594 47.824219 26.304688 47.105469 26.683594 L 46.316406 27.109375 L 38.082031 27.109375 C 31.445312 27.109375 29.835938 27.066406 29.835938 26.917969 C 29.835938 26.757812 30.566406 26.273438 32.335938 25.277344 C 33.214844 24.78125 35.40625 23.519531 35.65625 23.371094 C 35.789062 23.285156 36.300781 22.992188 36.78125 22.714844 C 37.265625 22.433594 37.777344 22.128906 37.90625 22.054688 C 38.039062 21.964844 38.726562 21.570312 39.429688 21.175781 C 40.132812 20.765625 41.007812 20.265625 41.375 20.046875 C 41.738281 19.828125 42.25 19.535156 42.484375 19.402344 C 43.554688 18.816406 43.890625 18.054688 43.320312 17.539062 C 42.777344 17.058594 42.296875 17.246094 38.683594 19.417969 C 37.601562 20.074219 36.3125 20.808594 31.734375 23.445312 C 30.171875 24.355469 28.695312 25.261719 28.460938 25.484375 C 27.933594 25.953125 27.347656 27.183594 27.347656 27.785156 C 27.347656 28.046875 27.480469 28.398438 27.625 28.589844 L 27.90625 28.941406 L 35.230469 28.957031 C 39.253906 28.96875 42.660156 29.027344 42.808594 29.074219 C 43.027344 29.160156 43.011719 29.191406 42.734375 29.394531 C 42.25 29.730469 41.84375 30.65625 41.8125 31.492188 C 41.769531 32.765625 41.214844 32.675781 49.445312 32.675781 C 57.503906 32.675781 57.257812 32.648438 56.246094 33.570312 C 55.386719 34.347656 55.019531 35.59375 55.429688 36.355469 C 55.574219 36.632812 55.925781 36.632812 72.027344 36.632812 L 88.464844 36.632812 L 88.570312 36.121094 C 88.671875 35.550781 88.523438 34.289062 88.351562 34.289062 C 88.292969 34.289062 88.160156 34.128906 88.070312 33.921875 C 87.882812 33.5 85.410156 31.828125 84.210938 31.316406 C 83.976562 31.226562 83.800781 31.109375 83.800781 31.050781 C 83.800781 30.992188 83.640625 30.90625 83.4375 30.859375 C 83.230469 30.800781 83.070312 30.699219 83.070312 30.625 C 83.070312 30.539062 82.980469 30.480469 82.878906 30.480469 C 82.761719 30.480469 82.527344 30.347656 82.339844 30.1875 C 82.148438 30.023438 81.914062 29.894531 81.796875 29.894531 C 81.695312 29.894531 81.609375 29.820312 81.609375 29.746094 C 81.609375 29.660156 81.535156 29.601562 81.445312 29.601562 C 81.328125 29.601562 78.230469 27.8125 76.636719 26.816406 C 76.519531 26.742188 76.167969 26.550781 75.84375 26.375 C 75.539062 26.214844 75.1875 25.980469 75.070312 25.863281 C 74.953125 25.746094 74.75 25.644531 74.601562 25.644531 C 74.28125 25.644531 74.003906 25.367188 74.003906 25.027344 C 74.003906 24.851562 74.308594 24.617188 74.980469 24.296875 C 76.050781 23.78125 76.253906 23.605469 76.707031 22.933594 C 77.277344 22.054688 77.382812 21.761719 77.382812 20.808594 C 77.382812 17.996094 74.835938 15.929688 72.21875 16.617188 C 70.84375 16.984375 70.183594 17.453125 69.511719 18.550781 C 69.03125 19.34375 68.78125 20.398438 68.941406 21.027344 C 69.015625 21.335938 69.117188 21.394531 69.601562 21.394531 C 70.289062 21.394531 70.417969 21.234375 70.535156 20.324219 C 70.871094 17.804688 74.367188 17.175781 75.496094 19.445312 C 76.050781 20.558594 75.960938 21.363281 75.171875 22.316406 C 74.953125 22.609375 73.929688 23.152344 73.621094 23.152344 C 73.066406 23.152344 71.898438 24.910156 72.234375 25.25 C 72.320312 25.335938 72.394531 25.511719 72.394531 25.644531 C 72.394531 25.921875 73.167969 26.683594 73.710938 26.933594 C 74.148438 27.136719 74.632812 27.445312 74.734375 27.5625 C 74.777344 27.621094 74.953125 27.695312 75.144531 27.753906 C 75.320312 27.8125 75.464844 27.929688 75.464844 28.003906 C 75.464844 28.078125 75.539062 28.136719 75.625 28.136719 C 75.714844 28.136719 76.605469 28.632812 77.601562 29.234375 C 78.59375 29.835938 79.488281 30.332031 79.558594 30.332031 C 79.648438 30.332031 79.707031 30.390625 79.707031 30.464844 C 79.707031 30.539062 79.851562 30.65625 80.027344 30.714844 C 80.421875 30.832031 81.8125 31.667969 81.871094 31.828125 C 81.898438 31.886719 81.988281 31.945312 82.074219 31.945312 C 82.164062 31.945312 82.761719 32.265625 83.4375 32.675781 C 84.109375 33.074219 84.722656 33.410156 84.808594 33.410156 C 84.898438 33.410156 84.972656 33.46875 84.972656 33.527344 C 84.972656 33.601562 85.335938 33.835938 85.789062 34.054688 C 86.359375 34.332031 86.578125 34.523438 86.550781 34.699219 C 86.507812 34.933594 85.496094 34.949219 71.953125 34.949219 C 59.332031 34.949219 57.402344 34.917969 57.402344 34.730469 C 57.402344 34.613281 58.105469 34.097656 58.953125 33.585938 L 60.519531 32.664062 L 67.683594 32.675781 L 74.867188 32.691406 L 75.113281 32.3125 C 75.289062 32.03125 75.332031 31.785156 75.246094 31.257812 C 75.054688 29.953125 74.410156 29.261719 72.363281 28.105469 C 71.488281 27.621094 70.742188 27.167969 70.695312 27.078125 C 70.652344 27.007812 70.742188 26.816406 70.917969 26.65625 C 71.414062 26.1875 71.296875 25.484375 70.683594 25.292969 C 70.375 25.191406 69.175781 25.703125 69.058594 25.964844 C 68.984375 26.113281 68.636719 26.113281 68.5625 25.964844 C 68.546875 25.90625 68.195312 25.660156 67.800781 25.425781 C 67.390625 25.175781 66.835938 24.839844 66.558594 24.660156 C 66.265625 24.472656 65.929688 24.28125 65.8125 24.222656 C 65.695312 24.179688 64.613281 23.546875 63.398438 22.832031 C 62.199219 22.128906 61.101562 21.480469 60.984375 21.410156 C 60.472656 21.128906 60.664062 20.824219 61.644531 20.339844 C 63.910156 19.238281 64.671875 16.96875 63.546875 14.726562 C 63.035156 13.730469 62.011719 12.835938 61.089844 12.585938 C 60.753906 12.5 59.933594 12.457031 59.273438 12.484375 C 58.179688 12.542969 58.003906 12.601562 57.285156 13.085938 C 56.128906 13.878906 55.664062 14.59375 55.414062 15.882812 C 55.222656 16.910156 55.398438 17.378906 56.027344 17.511719 C 56.644531 17.644531 56.992188 17.292969 57.167969 16.351562 C 57.386719 15.179688 58.238281 14.332031 59.390625 14.140625 C 59.890625 14.054688 60.136719 14.113281 60.824219 14.464844 C 61.484375 14.785156 61.703125 15.003906 61.964844 15.53125 C 62.140625 15.898438 62.289062 16.46875 62.300781 16.824219 C 62.300781 17.378906 62.230469 17.527344 61.601562 18.15625 C 61.175781 18.582031 60.695312 18.917969 60.414062 18.976562 C 59.273438 19.226562 58.472656 20.484375 58.808594 21.496094 C 59.085938 22.390625 59.1875 22.449219 63.546875 25.015625 C 67.144531 27.125 67.214844 27.183594 66.441406 27.503906 C 66.207031 27.609375 65.667969 27.886719 65.226562 28.136719 C 63.707031 29.015625 62.667969 29.613281 62.449219 29.761719 C 62.332031 29.835938 62.113281 29.9375 61.980469 29.980469 C 61.835938 30.039062 61.71875 30.128906 61.71875 30.1875 C 61.71875 30.261719 61.570312 30.363281 61.394531 30.421875 C 61.207031 30.480469 61.015625 30.597656 60.957031 30.683594 C 60.796875 30.933594 44.019531 30.992188 44.019531 30.742188 C 44.019531 30.640625 44.664062 30.1875 45.453125 29.730469 L 46.875 28.910156 L 53.746094 28.882812 C 58.382812 28.867188 60.664062 28.808594 60.796875 28.691406 C 61.089844 28.457031 61.03125 27.195312 60.679688 26.449219 C 60.328125 25.703125 59.816406 25.261719 58.089844 24.25 C 57.402344 23.839844 56.816406 23.445312 56.789062 23.34375 C 56.746094 23.253906 56.933594 23.066406 57.183594 22.933594 C 57.785156 22.625 58.003906 22.054688 57.695312 21.585938 C 57.316406 21.011719 57.050781 21.011719 55.957031 21.585938 C 55.386719 21.890625 54.828125 22.128906 54.710938 22.128906 C 54.609375 22.128906 53.71875 21.65625 52.738281 21.070312 C 51.773438 20.5 49.960938 19.429688 48.714844 18.699219 C 47.472656 17.964844 46.433594 17.292969 46.40625 17.1875 C 46.375 17.101562 46.742188 16.835938 47.222656 16.617188 C 48.132812 16.222656 49.066406 15.355469 49.492188 14.535156 C 50.089844 13.394531 49.902344 11.679688 49.039062 10.417969 C 47.78125 8.585938 45.484375 7.972656 43.480469 8.953125 Z M 55.210938 24.734375 C 55.457031 24.882812 56.042969 25.234375 56.527344 25.496094 C 57.753906 26.171875 58.542969 26.714844 58.617188 26.917969 C 58.660156 27.066406 57.796875 27.109375 54.640625 27.109375 C 52.414062 27.109375 50.585938 27.050781 50.542969 26.976562 C 50.457031 26.84375 50.867188 26.566406 52.359375 25.746094 C 52.796875 25.496094 53.453125 25.117188 53.820312 24.882812 C 54.59375 24.398438 54.640625 24.398438 55.210938 24.734375 Z M 69.820312 28.707031 C 70.332031 29.027344 71.003906 29.425781 71.324219 29.601562 C 72.714844 30.363281 73.023438 30.566406 73.007812 30.699219 C 72.964844 31.023438 64.351562 31.125 64.027344 30.800781 C 63.925781 30.699219 65.621094 29.628906 66.761719 29.085938 C 66.925781 29.015625 67.320312 28.765625 67.640625 28.546875 C 67.960938 28.324219 68.371094 28.136719 68.546875 28.136719 C 68.738281 28.136719 69.308594 28.398438 69.820312 28.707031 Z M 69.820312 28.707031 "/>
    <path style=" stroke:none;fill-rule:nonzero;fill:rgb(0%,0%,0%);fill-opacity:1;" d="M 45.542969 37.484375 C 45.308594 37.644531 44.957031 38.363281 44.300781 40.003906 C 44.125 40.445312 43.890625 41.015625 43.789062 41.28125 C 43.671875 41.527344 43.582031 41.808594 43.582031 41.910156 C 43.582031 41.996094 43.480469 42.421875 43.363281 42.832031 C 43.230469 43.257812 43.054688 43.828125 42.984375 44.109375 C 42.703125 45.015625 41.855469 46.65625 41.476562 47.023438 C 40.921875 47.550781 40.714844 47.273438 40.789062 46.042969 C 40.921875 43.375 40.789062 42.757812 40.058594 42.671875 C 39.605469 42.613281 39.574219 42.6875 39.269531 44.167969 C 38.976562 45.558594 38.992188 46.289062 39.328125 47.082031 C 39.882812 48.355469 40.773438 48.722656 41.550781 47.976562 L 41.945312 47.609375 L 42.03125 48.253906 C 42.089844 48.621094 42.074219 49.691406 42.019531 50.65625 C 41.960938 51.609375 41.914062 53.0625 41.945312 53.882812 L 41.988281 55.390625 L 41.183594 55.390625 C 40.585938 55.390625 40.378906 55.449219 40.304688 55.640625 C 40.144531 56.050781 40.421875 56.136719 41.769531 56.09375 L 43.070312 56.050781 L 43.246094 54.21875 C 43.507812 51.347656 43.480469 49.617188 43.160156 48.460938 C 42.996094 47.902344 42.910156 47.359375 42.953125 47.242188 C 43.054688 46.964844 44.855469 45.761719 45.894531 45.292969 C 46.304688 45.089844 46.652344 44.882812 46.652344 44.8125 C 46.652344 44.53125 45.964844 44.738281 44.8125 45.367188 C 44.136719 45.734375 43.582031 45.953125 43.582031 45.867188 C 43.582031 45.761719 43.773438 45.410156 43.992188 45.074219 C 44.210938 44.753906 44.546875 44.179688 44.722656 43.8125 C 44.914062 43.449219 45.117188 43.050781 45.191406 42.933594 C 45.996094 41.515625 46.785156 39.183594 46.800781 38.214844 C 46.800781 37.628906 46.011719 37.160156 45.542969 37.484375 Z M 45.9375 39.578125 C 45.703125 40.738281 45.527344 41.160156 44.417969 43.226562 C 43.113281 45.675781 43.347656 44.179688 44.882812 40.3125 C 45.570312 38.597656 45.746094 38.304688 45.980469 38.539062 C 46.082031 38.640625 46.070312 38.964844 45.9375 39.578125 Z M 42.953125 51.800781 C 42.867188 53.792969 42.777344 54.277344 42.53125 54.128906 C 42.382812 54.027344 42.441406 51.976562 42.660156 50.128906 C 42.71875 49.5 42.777344 49.398438 42.894531 49.601562 C 42.984375 49.777344 43.011719 50.597656 42.953125 51.800781 Z M 42.953125 51.800781 "/>
    <path style=" stroke:none;fill-rule:nonzero;fill:rgb(0%,0%,0%);fill-opacity:1;" d="M 29.222656 40.179688 C 29.015625 41.015625 28.765625 41.984375 28.679688 42.347656 C 28.59375 42.714844 28.3125 43.902344 28.066406 44.988281 C 27.832031 46.070312 27.597656 47.097656 27.554688 47.257812 C 27.496094 47.476562 27.582031 47.625 27.90625 47.800781 L 28.328125 48.050781 L 28.796875 46.980469 C 29.335938 45.75 30.15625 44.695312 30.582031 44.695312 C 30.875 44.695312 30.886719 44.738281 30.933594 47.113281 C 30.945312 48.078125 31.296875 49.046875 31.679688 49.191406 C 32.191406 49.382812 32.320312 49.164062 33.15625 46.699219 C 33.300781 46.320312 33.476562 46.027344 33.550781 46.070312 C 33.636719 46.101562 33.679688 46.21875 33.652344 46.320312 C 33.621094 46.4375 33.5625 46.980469 33.535156 47.550781 C 33.476562 48.707031 33.621094 49.105469 34.03125 48.855469 C 34.308594 48.679688 34.398438 48.488281 35.113281 46.171875 C 35.625 44.589844 36.605469 42.863281 37 42.863281 C 37.148438 42.863281 37.234375 43.039062 37.265625 43.402344 C 37.335938 44.269531 37.628906 44.355469 38.082031 43.667969 C 38.289062 43.34375 38.464844 42.933594 38.464844 42.746094 C 38.464844 42.230469 38.070312 41.761719 37.617188 41.761719 C 37.148438 41.777344 36.855469 41.96875 36.488281 42.554688 L 36.210938 42.964844 L 35.933594 42.582031 C 35.480469 41.96875 35.027344 42.070312 34.617188 42.890625 C 34.414062 43.285156 34.179688 43.859375 34.078125 44.179688 C 33.972656 44.503906 33.8125 44.871094 33.710938 44.988281 C 33.609375 45.105469 33.300781 45.734375 33.023438 46.394531 C 32.761719 47.054688 32.363281 47.800781 32.160156 48.078125 C 31.792969 48.546875 31.78125 48.546875 31.621094 48.269531 C 31.515625 48.078125 31.503906 47.652344 31.589844 46.964844 C 31.664062 46.394531 31.722656 45.527344 31.734375 45.03125 C 31.734375 44.238281 31.691406 44.078125 31.414062 43.902344 C 30.902344 43.578125 30.347656 43.769531 29.617188 44.5625 C 28.605469 45.644531 28.503906 45.542969 28.972656 43.8125 C 29.058594 43.449219 29.191406 43.023438 29.265625 42.863281 C 29.335938 42.699219 29.484375 42.128906 29.601562 41.601562 C 29.71875 41.074219 29.953125 40.296875 30.128906 39.871094 C 30.421875 39.125 30.421875 39.082031 30.171875 38.890625 C 30.023438 38.789062 29.835938 38.6875 29.761719 38.6875 C 29.675781 38.6875 29.441406 39.359375 29.222656 40.179688 Z M 29.222656 40.179688 "/>
    <path style=" stroke:none;fill-rule:nonzero;fill:rgb(0%,0%,0%);fill-opacity:1;" d="M 58.472656 39.140625 C 58.324219 39.214844 58.207031 39.375 58.207031 39.476562 C 58.207031 39.578125 58.015625 39.917969 57.769531 40.222656 C 57.535156 40.53125 57.328125 40.898438 57.328125 41.042969 C 57.328125 41.191406 57.214844 41.410156 57.082031 41.558594 C 56.933594 41.691406 56.789062 42.144531 56.730469 42.554688 C 56.671875 42.964844 56.554688 43.695312 56.453125 44.179688 C 56.320312 44.78125 56.304688 45.5 56.378906 46.363281 C 56.46875 47.566406 56.511719 47.699219 56.992188 48.226562 C 57.535156 48.824219 57.914062 48.929688 58.527344 48.636719 C 58.953125 48.445312 59.714844 47.417969 59.933594 46.761719 C 60.136719 46.1875 60.019531 45.9375 59.785156 46.378906 C 59.4375 47.007812 58.515625 47.800781 58.179688 47.742188 C 57.667969 47.667969 57.328125 46.863281 57.328125 45.71875 C 57.328125 44.402344 57.679688 42.496094 58.046875 41.894531 C 58.207031 41.617188 58.441406 41.191406 58.542969 40.957031 C 58.792969 40.429688 59.15625 40.09375 59.378906 40.222656 C 59.449219 40.269531 59.523438 40.546875 59.523438 40.824219 C 59.523438 41.484375 59.800781 41.425781 60.050781 40.722656 C 60.3125 39.988281 60.300781 39.449219 60.007812 39.300781 C 59.554688 39.066406 58.734375 38.980469 58.472656 39.140625 Z M 58.472656 39.140625 "/>
    <path style=" stroke:none;fill-rule:nonzero;fill:rgb(0%,0%,0%);fill-opacity:1;" d="M 25.375 39.59375 C 24.890625 39.667969 24.308594 39.695312 24.058594 39.652344 C 23.78125 39.625 23.515625 39.683594 23.328125 39.84375 C 22.945312 40.179688 21.996094 40.445312 21.191406 40.445312 C 20.839844 40.445312 20.445312 40.503906 20.328125 40.589844 C 20.152344 40.691406 20.167969 40.765625 20.402344 41.042969 C 20.882812 41.558594 21.28125 41.644531 22.257812 41.398438 C 22.742188 41.265625 23.179688 41.207031 23.238281 41.25 C 23.28125 41.308594 23.328125 42.613281 23.328125 44.152344 C 23.328125 45.703125 23.386719 47.15625 23.445312 47.40625 C 23.515625 47.640625 23.589844 47.992188 23.632812 48.179688 C 23.679688 48.429688 23.78125 48.503906 24.015625 48.472656 C 24.320312 48.429688 24.320312 48.355469 24.378906 45.132812 C 24.410156 43.316406 24.496094 41.585938 24.585938 41.292969 C 24.730469 40.707031 25.050781 40.53125 26.324219 40.355469 C 27.203125 40.238281 27.789062 40.003906 27.789062 39.785156 C 27.789062 39.402344 27.027344 39.332031 25.375 39.59375 Z M 25.375 39.59375 "/>
    <path style=" stroke:none;fill-rule:nonzero;fill:rgb(0%,0%,0%);fill-opacity:1;" d="M 48.160156 40.035156 C 48.101562 40.136719 47.984375 40.589844 47.898438 41.03125 L 47.75 41.835938 L 46.699219 42.347656 C 46.113281 42.628906 45.628906 42.90625 45.628906 42.980469 C 45.628906 43.039062 45.789062 43.15625 45.980469 43.257812 C 46.273438 43.375 46.476562 43.359375 46.960938 43.167969 C 47.675781 42.875 47.882812 43.023438 47.648438 43.667969 C 47.574219 43.902344 47.53125 44.371094 47.558594 44.707031 C 47.589844 45.25 47.664062 45.367188 47.941406 45.398438 C 48.117188 45.425781 48.261719 45.382812 48.261719 45.292969 C 48.261719 45.207031 48.160156 45.132812 48.042969 45.132812 C 47.910156 45.132812 47.824219 45 47.824219 44.824219 C 47.824219 44.589844 47.898438 44.53125 48.101562 44.589844 C 48.421875 44.664062 48.480469 44.53125 48.644531 43.273438 C 48.773438 42.21875 48.847656 42.171875 51.1875 41.484375 C 51.390625 41.425781 51.566406 41.265625 51.597656 41.132812 C 51.671875 40.738281 50.996094 40.679688 50.089844 41.015625 C 49.039062 41.410156 48.992188 41.410156 48.992188 40.867188 C 48.992188 40.0625 48.480469 39.550781 48.160156 40.035156 Z M 48.160156 40.035156 "/>
    <path style=" stroke:none;fill-rule:nonzero;fill:rgb(0%,0%,0%);fill-opacity:1;" d="M 40.074219 40.882812 C 40.074219 41.21875 40.144531 41.324219 40.351562 41.324219 C 40.496094 41.324219 40.65625 41.21875 40.714844 41.101562 C 40.832031 40.765625 40.65625 40.445312 40.351562 40.445312 C 40.144531 40.445312 40.074219 40.546875 40.074219 40.882812 Z M 40.074219 40.882812 "/>
    <path style=" stroke:none;fill-rule:nonzero;fill:rgb(0%,0%,0%);fill-opacity:1;" d="M 91.171875 42.113281 C 89.796875 43.476562 89.59375 43.8125 89.695312 44.519531 C 89.753906 44.839844 89.710938 45.191406 89.605469 45.367188 C 89.503906 45.542969 89.183594 46.128906 88.890625 46.6875 C 88.597656 47.242188 88.261719 47.828125 88.144531 47.992188 C 87.808594 48.429688 87.722656 48.035156 87.894531 46.890625 C 88.464844 43.125 88.453125 42.933594 87.558594 42.933594 C 87.003906 42.933594 86.15625 43.625 85.117188 44.898438 C 84.695312 45.425781 84.285156 45.820312 84.226562 45.777344 C 84.152344 45.734375 84.09375 44.972656 84.09375 44.09375 L 84.09375 42.480469 L 83.625 42.523438 C 83.1875 42.570312 83.144531 42.628906 83.027344 43.226562 C 82.96875 43.59375 82.9375 44.503906 82.96875 45.25 C 83.027344 46.421875 83.070312 46.65625 83.363281 46.964844 C 83.816406 47.449219 84.371094 47.433594 84.867188 46.921875 C 85.089844 46.699219 85.265625 46.4375 85.265625 46.335938 C 85.265625 46.160156 86.066406 44.605469 86.332031 44.285156 C 86.417969 44.179688 86.59375 44.035156 86.742188 43.945312 C 86.988281 43.828125 87.003906 43.960938 87.003906 46.101562 C 86.988281 48.605469 87.121094 49.089844 87.824219 49.089844 C 88.234375 49.089844 88.4375 48.8125 88.992188 47.492188 C 89.636719 45.9375 90.015625 45.425781 90.542969 45.425781 C 90.792969 45.425781 91.480469 45.234375 92.09375 44.988281 C 92.957031 44.636719 93.25 44.578125 93.484375 44.707031 C 93.9375 44.957031 93.71875 45.820312 93.042969 46.40625 C 92.75 46.671875 92.429688 46.878906 92.355469 46.890625 C 92.269531 46.890625 91.773438 47.289062 91.230469 47.769531 C 90.46875 48.460938 90.207031 48.8125 90.015625 49.398438 C 89.8125 50 89.796875 50.21875 89.929688 50.511719 C 90.074219 50.832031 90.164062 50.863281 90.558594 50.789062 C 90.804688 50.746094 91.097656 50.703125 91.203125 50.703125 C 91.597656 50.703125 92.648438 49.558594 93.148438 48.589844 C 93.410156 48.0625 93.703125 47.625 93.761719 47.625 C 93.835938 47.625 93.890625 47.523438 93.890625 47.390625 C 93.890625 46.804688 95.355469 45.734375 96.160156 45.71875 C 96.597656 45.71875 96.816406 45.527344 96.6875 45.292969 C 96.582031 45.148438 96.363281 45.117188 95.824219 45.191406 C 95.148438 45.28125 95.0625 45.25 94.902344 44.957031 C 94.8125 44.765625 94.566406 44.445312 94.359375 44.210938 C 93.921875 43.742188 93.191406 43.683594 92.050781 44.035156 C 91.1875 44.296875 90.96875 44.3125 90.96875 44.09375 C 90.96875 43.84375 91.832031 42.789062 92.621094 42.070312 C 93.277344 41.46875 93.320312 41.398438 93.074219 41.21875 C 92.605469 40.882812 92.226562 41.042969 91.171875 42.113281 Z M 93.308594 47.390625 C 93.308594 47.417969 93.074219 47.800781 92.796875 48.226562 C 92.519531 48.664062 92.285156 49.074219 92.285156 49.148438 C 92.285156 49.441406 91.347656 50.261719 91.011719 50.261719 C 90.558594 50.261719 90.457031 49.953125 90.75 49.398438 C 91.113281 48.679688 93.308594 46.964844 93.308594 47.390625 Z M 93.308594 47.390625 "/>
    <path style=" stroke:none;fill-rule:nonzero;fill:rgb(0%,0%,0%);fill-opacity:1;" d="M 77.394531 41.5 C 77.234375 41.71875 77.042969 43.242188 77 44.753906 C 76.972656 45.558594 76.914062 45.808594 76.679688 45.996094 C 76.519531 46.128906 76.136719 46.6875 75.84375 47.230469 C 75.539062 47.785156 75.214844 48.195312 75.128906 48.167969 C 74.894531 48.09375 74.96875 46.761719 75.246094 45.777344 C 75.363281 45.367188 75.507812 44.371094 75.554688 43.566406 C 75.65625 42.171875 75.640625 42.085938 75.363281 41.996094 C 75.1875 41.9375 74.910156 41.96875 74.71875 42.070312 C 74.265625 42.277344 72.480469 44.546875 72.117188 45.382812 C 71.867188 45.925781 71.664062 45.925781 71.664062 45.382812 C 71.664062 44.824219 71.382812 44.488281 70.988281 44.578125 C 70.84375 44.605469 70.433594 44.988281 70.082031 45.425781 C 69.71875 45.867188 69.367188 46.246094 69.308594 46.277344 C 69.101562 46.363281 69.160156 44.972656 69.394531 44.195312 C 69.6875 43.242188 69.671875 43.15625 69.234375 42.863281 C 68.695312 42.511719 68.472656 42.789062 68.386719 43.917969 C 68.355469 44.414062 68.167969 45.148438 67.960938 45.585938 C 67.582031 46.421875 66.691406 49.191406 66.691406 49.484375 C 66.691406 49.765625 66.296875 49.71875 66.191406 49.441406 C 66.015625 48.988281 66.121094 47.066406 66.398438 45.425781 C 66.878906 42.628906 66.75 41.910156 65.855469 42.40625 C 64.4375 43.183594 64.539062 43.15625 64.144531 42.890625 C 63.53125 42.480469 63.046875 42.570312 62.449219 43.226562 C 62.15625 43.550781 61.820312 43.8125 61.703125 43.8125 C 61.46875 43.8125 61.058594 44.386719 61.191406 44.519531 C 61.25 44.5625 61.382812 44.472656 61.5 44.3125 C 61.804688 43.917969 61.761719 44.269531 61.410156 45.164062 C 61 46.203125 60.972656 47.433594 61.351562 47.710938 C 61.5 47.828125 61.804688 47.917969 62.039062 47.917969 C 62.476562 47.917969 62.800781 47.507812 63.457031 46.160156 C 63.910156 45.207031 64.351562 44.5625 64.964844 43.886719 C 65.652344 43.167969 65.828125 43.300781 65.652344 44.402344 C 65.402344 45.835938 65.242188 48.414062 65.328125 49.207031 C 65.433594 50.085938 65.898438 50.90625 66.324219 50.964844 C 66.835938 51.039062 67.128906 50.671875 67.261719 49.808594 C 67.4375 48.753906 68.007812 46.890625 68.152344 46.890625 C 68.210938 46.890625 68.3125 47.054688 68.355469 47.257812 C 68.503906 47.859375 69.089844 47.742188 69.613281 47.007812 C 69.847656 46.6875 70.054688 46.335938 70.054688 46.230469 C 70.054688 45.996094 70.59375 45.515625 70.683594 45.675781 C 70.710938 45.734375 70.800781 46.054688 70.859375 46.378906 C 71.0625 47.550781 71.792969 47.84375 72.1875 46.921875 C 72.921875 45.234375 73.738281 43.695312 74.0625 43.390625 L 74.441406 43.039062 L 74.441406 43.710938 C 74.441406 44.078125 74.308594 45.164062 74.148438 46.113281 C 73.796875 48.210938 73.78125 48.765625 74.089844 49.53125 C 74.296875 50.027344 74.398438 50.117188 74.75 50.117188 C 75.261719 50.117188 75.667969 49.542969 75.890625 48.488281 C 76.050781 47.757812 76.472656 46.863281 76.707031 46.789062 C 76.796875 46.761719 76.867188 47.550781 76.882812 48.738281 C 76.914062 50.878906 77.074219 51.582031 77.542969 51.582031 C 77.953125 51.582031 77.980469 51.316406 77.730469 50.117188 C 77.601562 49.46875 77.542969 48.78125 77.601562 48.414062 C 77.6875 47.816406 77.703125 47.800781 78.359375 47.699219 C 79.3125 47.566406 80.027344 47.054688 80.730469 46.011719 C 81.898438 44.285156 82.003906 43.257812 81.050781 42.847656 C 80.570312 42.640625 80.464844 42.65625 79.953125 42.875 C 79.648438 43.023438 79.078125 43.492188 78.667969 43.917969 C 77.980469 44.695312 77.628906 44.824219 77.730469 44.285156 C 77.761719 44.152344 77.90625 43.566406 78.039062 42.980469 C 78.289062 41.953125 78.289062 41.910156 78.023438 41.617188 C 77.71875 41.28125 77.601562 41.25 77.394531 41.5 Z M 64.203125 43.667969 C 64.203125 43.828125 64.070312 44.078125 63.898438 44.226562 C 63.734375 44.355469 63.328125 44.855469 63.003906 45.308594 C 62.347656 46.230469 62.097656 46.378906 62.242188 45.75 C 62.582031 44.355469 64.203125 42.628906 64.203125 43.667969 Z M 80.773438 43.492188 C 80.90625 43.695312 80.570312 45.132812 80.277344 45.632812 C 79.78125 46.480469 78.316406 47.390625 78.082031 47.007812 C 77.878906 46.6875 77.9375 46.40625 78.417969 45.441406 C 79.046875 44.210938 80.496094 43.007812 80.773438 43.492188 Z M 80.773438 43.492188 "/>
    <path style=" stroke:none;fill-rule:nonzero;fill:rgb(0%,0%,0%);fill-opacity:1;" d="M 50.894531 45.71875 C 50.894531 45.792969 50.96875 45.867188 51.042969 45.867188 C 51.128906 45.867188 51.1875 45.792969 51.1875 45.71875 C 51.1875 45.632812 51.128906 45.574219 51.042969 45.574219 C 50.96875 45.574219 50.894531 45.632812 50.894531 45.71875 Z M 50.894531 45.71875 "/>
    <path style=" stroke:none;fill-rule:nonzero;fill:rgb(0%,0%,0%);fill-opacity:1;" d="M 47.457031 47.097656 C 47.222656 47.273438 47.210938 47.332031 47.371094 47.535156 C 47.53125 47.726562 47.53125 47.859375 47.386719 48.210938 C 47.238281 48.546875 47.238281 48.796875 47.386719 49.410156 C 47.488281 49.835938 47.632812 50.277344 47.722656 50.363281 C 48.058594 50.804688 48.890625 50.453125 49.652344 49.558594 C 50.003906 49.148438 50.089844 48.898438 50.105469 48.285156 C 50.121094 47.859375 50.164062 47.433594 50.222656 47.347656 C 50.28125 47.257812 50.265625 47.183594 50.191406 47.183594 C 50.121094 47.183594 49.769531 47.609375 49.433594 48.121094 C 48.804688 49.089844 48.453125 49.484375 48.335938 49.351562 C 48.292969 49.308594 48.21875 48.839844 48.160156 48.296875 C 48.058594 47.097656 47.867188 46.789062 47.457031 47.097656 Z M 47.457031 47.097656 "/>
    <path style=" stroke:none;fill-rule:nonzero;fill:rgb(0%,0%,0%);fill-opacity:1;" d="M 34.046875 55.199219 C 34.003906 56.226562 34.003906 57.164062 34.046875 57.265625 C 34.089844 57.398438 34.484375 57.441406 35.597656 57.414062 C 37 57.367188 37.074219 57.355469 37.117188 57.03125 C 37.164062 56.722656 37.117188 56.710938 36.066406 56.710938 C 35.011719 56.710938 34.953125 56.695312 34.867188 56.359375 C 34.734375 55.832031 34.894531 55.683594 35.613281 55.683594 C 36.007812 55.683594 36.269531 55.609375 36.3125 55.480469 C 36.445312 55.15625 36.109375 54.949219 35.421875 54.949219 C 34.820312 54.949219 34.792969 54.9375 34.835938 54.539062 C 34.878906 54.160156 34.910156 54.144531 35.976562 54.070312 C 36.957031 54.011719 37.074219 53.96875 37.074219 53.707031 C 37.074219 53.441406 36.957031 53.414062 35.597656 53.367188 L 34.121094 53.324219 Z M 34.046875 55.199219 "/>
    <path style=" stroke:none;fill-rule:nonzero;fill:rgb(0%,0%,0%);fill-opacity:1;" d="M 46.257812 53.515625 C 45.835938 53.71875 45.558594 54.539062 45.777344 54.9375 C 45.980469 55.332031 46.667969 55.683594 47.210938 55.683594 C 47.792969 55.683594 48.132812 55.976562 48.027344 56.371094 C 47.957031 56.652344 47.839844 56.710938 47.386719 56.710938 C 47.078125 56.710938 46.625 56.59375 46.375 56.460938 C 46.039062 56.253906 45.894531 56.242188 45.761719 56.371094 C 45.132812 57.003906 47.035156 57.734375 48.175781 57.296875 C 48.394531 57.222656 48.65625 56.929688 48.789062 56.652344 C 49.023438 56.183594 49.023438 56.125 48.746094 55.65625 C 48.496094 55.230469 48.351562 55.15625 47.605469 55.023438 C 46.699219 54.863281 46.289062 54.527344 46.625 54.1875 C 46.859375 53.953125 47.824219 54.027344 48.117188 54.292969 C 48.394531 54.539062 48.703125 54.335938 48.703125 53.925781 C 48.703125 53.441406 46.988281 53.164062 46.257812 53.515625 Z M 46.257812 53.515625 "/>
    <path style=" stroke:none;fill-rule:nonzero;fill:rgb(0%,0%,0%);fill-opacity:1;" d="M 52.019531 53.425781 C 51.960938 53.484375 51.917969 53.660156 51.917969 53.808594 C 51.917969 54.027344 52.035156 54.070312 52.5625 54.070312 C 53.015625 54.070312 53.234375 54.144531 53.292969 54.304688 C 53.335938 54.4375 53.382812 55.199219 53.382812 56.007812 C 53.382812 57.425781 53.382812 57.457031 53.71875 57.414062 C 54.023438 57.367188 54.039062 57.308594 54.082031 55.714844 L 54.128906 54.070312 L 54.785156 54.070312 C 55.386719 54.070312 55.445312 54.042969 55.398438 53.734375 C 55.355469 53.425781 55.28125 53.414062 53.730469 53.367188 C 52.855469 53.355469 52.078125 53.382812 52.019531 53.425781 Z M 52.019531 53.425781 "/>
    <path style=" stroke:none;fill-rule:nonzero;fill:rgb(0%,0%,0%);fill-opacity:1;" d="M 59.597656 53.617188 C 58.925781 54.011719 58.644531 54.539062 58.644531 55.390625 C 58.644531 56.621094 59.464844 57.441406 60.707031 57.441406 C 62.800781 57.441406 63.558594 54.511719 61.71875 53.558594 C 61.132812 53.25 60.125 53.28125 59.597656 53.617188 Z M 61.292969 54.21875 C 61.441406 54.304688 61.671875 54.570312 61.789062 54.820312 C 62.257812 55.714844 61.394531 56.886719 60.445312 56.636719 C 59.933594 56.519531 59.378906 55.859375 59.378906 55.390625 C 59.378906 54.496094 60.519531 53.808594 61.292969 54.21875 Z M 61.292969 54.21875 "/>
    <path style=" stroke:none;fill-rule:nonzero;fill:rgb(0%,0%,0%);fill-opacity:1;" d="M 66.074219 53.515625 C 66.03125 53.617188 66.03125 54.554688 66.074219 55.582031 L 66.132812 57.457031 L 66.527344 57.414062 C 66.867188 57.367188 66.910156 57.296875 66.984375 56.636719 C 67.039062 55.976562 67.085938 55.902344 67.40625 55.902344 C 67.683594 55.902344 67.859375 56.066406 68.167969 56.636719 C 68.429688 57.121094 68.679688 57.382812 68.882812 57.414062 C 69.453125 57.5 69.527344 57.222656 69.117188 56.578125 C 68.914062 56.253906 68.738281 55.949219 68.738281 55.890625 C 68.738281 55.84375 68.898438 55.609375 69.101562 55.363281 C 69.628906 54.746094 69.585938 54.175781 68.984375 53.71875 C 68.546875 53.382812 68.34375 53.339844 67.320312 53.339844 C 66.5 53.339844 66.121094 53.398438 66.074219 53.515625 Z M 68.269531 54.203125 C 68.386719 54.261719 68.445312 54.480469 68.414062 54.671875 C 68.371094 54.980469 68.285156 55.023438 67.683594 55.070312 C 66.996094 55.113281 66.984375 55.097656 66.984375 54.6875 C 66.984375 54.453125 67.027344 54.21875 67.085938 54.175781 C 67.214844 54.027344 68.035156 54.058594 68.269531 54.203125 Z M 68.269531 54.203125 "/>
    <path style=" stroke:none;fill-rule:nonzero;fill:rgb(0%,0%,0%);fill-opacity:1;" d="M 72.746094 53.53125 C 72.714844 53.632812 72.699219 54.539062 72.714844 55.550781 L 72.757812 57.367188 L 74.296875 57.367188 C 75.773438 57.367188 75.832031 57.355469 75.875 57.03125 C 75.917969 56.769531 75.859375 56.710938 75.496094 56.710938 C 75.261719 56.710938 74.761719 56.664062 74.382812 56.621094 C 73.753906 56.535156 73.710938 56.488281 73.710938 56.109375 C 73.710938 55.699219 73.738281 55.683594 74.351562 55.683594 C 75.054688 55.683594 75.230469 55.566406 75.085938 55.1875 C 75.027344 55.023438 74.808594 54.949219 74.367188 54.949219 C 73.726562 54.949219 73.492188 54.730469 73.652344 54.292969 C 73.726562 54.128906 74.003906 54.070312 74.835938 54.070312 C 75.875 54.070312 75.917969 54.058594 75.875 53.734375 C 75.832031 53.425781 75.757812 53.414062 74.324219 53.367188 C 73.183594 53.339844 72.804688 53.367188 72.746094 53.53125 Z M 72.746094 53.53125 "/>
    <path style=" stroke:none;fill-rule:nonzero;fill:rgb(0%,0%,0%);fill-opacity:1;" d="M 79.53125 53.675781 C 78.582031 54.453125 79.019531 55.449219 80.410156 55.667969 C 81.328125 55.816406 81.609375 56.019531 81.375 56.386719 C 81.152344 56.738281 80.480469 56.78125 79.925781 56.476562 C 79.382812 56.195312 78.929688 56.285156 79.003906 56.664062 C 79.078125 57.046875 79.96875 57.441406 80.757812 57.441406 C 81.652344 57.441406 82.339844 56.914062 82.339844 56.210938 C 82.339844 55.566406 81.839844 55.128906 80.980469 55.011719 C 80.070312 54.878906 79.722656 54.628906 79.984375 54.304688 C 80.203125 54.042969 81.242188 53.984375 81.386719 54.21875 C 81.535156 54.453125 82.003906 54.394531 82.105469 54.128906 C 82.238281 53.792969 82.238281 53.808594 81.664062 53.558594 C 80.875 53.238281 80 53.28125 79.53125 53.675781 Z M 79.53125 53.675781 "/>
  </g>
</svg>